<?xml version="1.0" encoding="utf-8"?>
<!-- Generator: Adobe Illustrator 21.0.2, SVG Export Plug-In . SVG Version: 6.00 Build 0)  -->
<svg version="1.1" id="Camada_1" xmlns="http://www.w3.org/2000/svg" xmlns:xlink="http://www.w3.org/1999/xlink" x="0px" y="0px"
	 viewBox="0 0 516 272" style="enable-background:new 0 0 516 272;" xml:space="preserve">
<style type="text/css">
	.st0{clip-path:url(#SVGID_2_);}
	.st1{clip-path:url(#SVGID_4_);fill:#FFFFFF;}
	.st2{opacity:0.4;clip-path:url(#SVGID_4_);}
	.st3{clip-path:url(#SVGID_6_);}
	.st4{clip-path:url(#SVGID_10_);}
	.st5{clip-path:url(#SVGID_14_);}
	.st6{clip-path:url(#SVGID_18_);}
	.st7{clip-path:url(#SVGID_22_);}
	.st8{clip-path:url(#SVGID_26_);}
	.st9{clip-path:url(#SVGID_30_);}
	.st10{fill:none;}
</style>
<g>
	<defs>
		<rect id="SVGID_1_" x="-144" y="-264" width="800" height="800"/>
	</defs>
	<clipPath id="SVGID_2_">
		<use xlink:href="#SVGID_1_"  style="overflow:visible;"/>
	</clipPath>
	<path class="st0" d="M46.4,148c0,9.8-9,17.4-20.2,17.4C15.1,165.4,6,157.8,6,148h11c0,4.5,4.1,7.2,9.2,7.2c5.1,0,9.2-2.7,9.2-7.2
		c0-8.2-4.6-9.5-9.2-9.5H14.8v-8.9l14.3-11.4H7.2v-9.7h37.1v9.7l-14.2,11.4C40,129.7,46.4,137.3,46.4,148"/>
	<polygon class="st0" points="68.9,120.1 68.9,129.9 89.4,129.9 89.4,141.7 68.9,141.7 68.9,151.5 97.1,151.5 97.1,163.3 
		55.6,163.3 55.6,108.2 97.1,108.2 97.1,120.1 	"/>
	<path class="st0" d="M152.8,153c-5.3,7.2-13.8,11.8-23.4,11.8c-16,0-29-13-29-29c0-16,13-29.1,29-29.1c9.6,0,18.1,4.7,23.4,11.9
		l-10,6.4c-3.7-3.4-7.9-5.6-13.4-5.6c-9,0-16.3,7.4-16.3,16.4c0,9,7.3,16.3,16.3,16.3c5.5,0,9-1.8,13.4-5.5L152.8,153z"/>
	<path class="st0" d="M372.3,153L372.3,153c-5.3,7.1-13.8,11.7-23.4,11.7c-16,0-29.1-13-29.1-29c0-16,13.1-29.1,29.1-29.1
		c9.6,0,17.4,4,22.7,11.2l-10.1,6.4c-3.4-3.1-7.1-4.9-12.6-4.9c-9,0-16.4,7.4-16.4,16.4c0,9,7.4,16.3,16.4,16.3
		c4.7,0,8.8-1.9,11.8-5v-5.8H344v-10.6h28.3V153z"/>
	<rect x="381.8" y="108.2" class="st0" width="13.2" height="55.1"/>
	<path class="st0" d="M446,155.8h-26.7l-3.7,7.5h-14.9l27.4-55.1h10l26.4,55.1h-14.7L446,155.8z M440.8,145l-8.2-17.7l-7.8,17.7
		H440.8z"/>
	<path class="st0" d="M464.4,146.3h12.2c0,0.1,0.5,7.5,8.8,7.5c4.5,0,8.5-3.1,8.5-6.5c0-7-10.9-7.5-14-8.3
		c-5.5-1.3-14.7-4.2-14.7-14.6c0-9.7,8.8-17.7,19.6-17.7c13.2,0,19.6,7.9,19.6,15.3h-11.6c0-1.4-1.9-4.2-8.1-4.2
		c-4.1,0-7.5,3-7.5,6.7c0,4.5,7.3,4.5,9.9,5c6.5,1.4,18.8,3.3,18.8,17.9c0,9.5-9.5,17.5-20.6,17.5
		C471,164.7,464.4,153.7,464.4,146.3"/>
</g>
<g>
	<defs>
		<path id="SVGID_3_" d="M106.7,202.1c0-9.9,8-17.9,17.9-17.9c9.9,0,17.9,8,17.9,17.9c0,1.2,0,2.3,0.1,3.5l0.1,1.6
			c0,0.1,0,0.1,0,0.2c0.1,0.6,0.1,1.1,0.2,1.7c0,0.5,0.1,1.1,0.2,1.6c0,0.4,0.1,0.7,0.2,1.1l0.1,0.4c0.1,0.7,0.2,1.3,0.3,1.9
			c0.1,0.5,0.2,1.1,0.4,1.7c0.1,0.5,0.2,1,0.3,1.4c0.3,1.3,0.6,2.5,1,3.6c0.3,0.9,0.6,1.8,1,2.8c0.1,0.3,0.2,0.7,0.4,1l0.4,0.9
			c0.1,0.3,0.3,0.7,0.4,1c0.2,0.5,0.4,0.9,0.6,1.4c0.1,0.3,0.3,0.6,0.4,0.9c0.3,0.6,0.6,1.2,0.9,1.7c0.2,0.3,0.3,0.6,0.5,0.9
			l0.2,0.4c0.4,0.8,0.8,1.5,1.2,2.2c0.1,0.2,0.2,0.4,0.4,0.6c0.5,0.7,0.9,1.4,1.3,2c0.1,0.2,0.3,0.4,0.4,0.6c0.5,0.7,0.9,1.3,1.4,2
			c0.4,0.5,0.8,1,1.2,1.6c0.1,0.2,0.3,0.4,0.4,0.5l0.1,0.1c0.2,0.2,0.4,0.5,0.6,0.7c0.6,0.7,1.1,1.3,1.7,2c0.1,0.1,0.1,0.1,0.2,0.2
			c0.2,0.3,0.5,0.5,0.7,0.8c0.1,0.1,0.2,0.2,0.3,0.4c0.5,0.5,1,1,1.5,1.5c0.1,0.1,0.3,0.3,0.5,0.5c0.5,0.5,1.1,1,1.7,1.5
			c0.1,0.1,0.2,0.2,0.2,0.2c0.4,0.4,0.8,0.7,1.2,1c0,0,0,0,0.1,0c0.1,0.1,0.3,0.2,0.4,0.3c0.5,0.4,1.1,0.9,1.7,1.3
			c0.3,0.2,0.5,0.4,0.8,0.6h-10.8C129.5,252.8,106.7,230.1,106.7,202.1 M186.3,243.6c20.9-1,38.2-18.2,39.3-39.2
			c0.6-11.6-3.4-22.5-11.3-30.9c-6.5-6.9-14.9-11.2-24-12.5v-7.2c3-1,6.1-1.6,9.1-2c2-0.3,4-0.4,6.2-0.4c7.8,0,15.2,1.7,22.1,5
			c3,1.5,5.9,3.3,8.6,5.3c4.8,3.6,8.8,8,12,13c0.1,0.1,0.1,0.2,0.2,0.3c1.4,2.2,2.6,4.5,3.6,6.9c0.9,2.2,1.7,4.4,2.4,6.7
			c0,0.1,0,0.1,0.1,0.2c0.2,0.8,0.4,1.6,0.6,2.4c0,0,0,0.1,0,0.1c1,4.3,1.3,8.8,1.1,13.3c-1.3,26-22.7,47.1-48.7,48.1
			c-1,0-2.1,0-3.3,0c-0.4,0-0.8,0-1.2,0c-0.1,0-0.2,0-0.3,0c-0.3,0-0.6,0-0.8,0c-0.1,0-0.2,0-0.2,0c-0.3,0-0.5-0.1-0.8-0.1l-0.6-0.1
			c-0.1,0-0.2,0-0.3,0c-0.3,0-0.6-0.1-1-0.1c-0.1,0-0.2,0-0.3,0c-0.3,0-0.6-0.1-0.9-0.1c-0.1,0-0.3,0-0.4-0.1
			c-1.1-0.2-2.2-0.4-3.3-0.6c-0.9-0.2-1.8-0.4-2.6-0.7l-0.9-0.3c-0.5-0.2-0.9-0.3-1.4-0.5c-3.3-1.1-6.5-2.5-9.4-4.3l-1-0.6
			c-0.6-0.4-1.1-0.7-1.7-1.1c0,0,0,0,0,0c-0.1-0.1-0.2-0.1-0.3-0.2c-0.6-0.4-1.2-0.8-1.7-1.2c0,0,0,0-0.1-0.1
			c2.9,0.6,5.8,0.9,8.9,0.9C184.8,243.7,185.6,243.6,186.3,243.6 M345.8,209.2c0.8-0.6,1.6-1.3,2.4-1.9c0.4-0.3,0.7-0.6,1.1-1
			c0.5-0.4,0.9-0.8,1.4-1.2c0.4-0.3,0.8-0.7,1.1-1.1c0.4-0.4,0.9-0.8,1.3-1.2c0.4-0.4,0.7-0.7,1.1-1.1c0.4-0.4,0.8-0.9,1.2-1.3
			c0.3-0.4,0.7-0.7,1-1.1c0.4-0.5,0.9-1,1.3-1.6c0.3-0.3,0.5-0.7,0.8-1c0.6-0.9,1.3-1.7,1.9-2.6c0.2-0.3,0.4-0.6,0.6-0.9
			c0.4-0.6,0.8-1.3,1.2-1.9c0.2-0.4,0.5-0.8,0.7-1.2c0.3-0.6,0.7-1.2,1-1.8c0.2-0.4,0.4-0.8,0.6-1.2c0.3-0.6,0.6-1.2,0.9-1.8
			c0.2-0.4,0.4-0.8,0.6-1.2c0.3-0.7,0.6-1.4,0.9-2.1c0.1-0.4,0.3-0.7,0.4-1.1c0.4-1,0.8-2.1,1.1-3.2c0.1-0.2,0.1-0.4,0.2-0.6
			c0.3-0.9,0.5-1.8,0.8-2.7c0.1-0.4,0.2-0.8,0.3-1.2c0.2-0.7,0.3-1.5,0.5-2.2c0.1-0.4,0.2-0.9,0.2-1.3c0.1-0.7,0.2-1.4,0.3-2.2
			c0.1-0.4,0.1-0.9,0.2-1.3c0.1-0.8,0.2-1.6,0.2-2.4c0-0.4,0.1-0.8,0.1-1.2c0.1-1.2,0.1-2.3,0.1-3.5c0,0,0,0,0,0v-0.1v-0.1v-0.4
			c0-0.1,0-0.3,0-0.4c0.2-9.7,8.2-17.5,17.9-17.5c9.9,0,17.9,8,17.9,17.9c0,28-22.7,50.7-50.7,50.7h-10.9
			C345.7,209.3,345.7,209.2,345.8,209.2 M106.7,113.4c0-28,22.7-50.7,50.7-50.7h10.9c0,0-0.1,0.1-0.1,0.1c-1.8,1.3-3.6,2.8-5.2,4.3
			c-0.2,0.2-0.4,0.4-0.6,0.6c-0.6,0.6-1.2,1.1-1.8,1.7c-0.2,0.3-0.5,0.5-0.7,0.8c-0.5,0.6-1.1,1.2-1.6,1.8c-0.2,0.3-0.5,0.5-0.7,0.8
			c-0.5,0.6-1.1,1.3-1.6,2c-0.2,0.2-0.3,0.4-0.5,0.7c-1.4,1.8-2.7,3.7-3.8,5.7c-0.1,0.2-0.2,0.4-0.3,0.6c-0.5,0.8-0.9,1.6-1.3,2.4
			c-0.2,0.3-0.3,0.6-0.5,0.9c-0.4,0.7-0.7,1.4-1.1,2.2c-0.2,0.3-0.3,0.7-0.4,1c-0.3,0.7-0.6,1.5-0.9,2.3c-0.1,0.3-0.2,0.6-0.4,0.9
			c-0.3,0.9-0.7,1.8-1,2.8c-0.1,0.2-0.1,0.3-0.2,0.5c-0.4,1.1-0.7,2.2-1,3.4c-0.1,0.2-0.1,0.4-0.2,0.6c-0.2,0.9-0.4,1.8-0.6,2.7
			c-0.1,0.4-0.1,0.8-0.2,1.1c-0.1,0.8-0.3,1.5-0.4,2.3c-0.1,0.4-0.1,0.8-0.2,1.3c-0.1,0.8-0.2,1.5-0.2,2.3c0,0.4-0.1,0.8-0.1,1.3
			c0,0.8-0.1,1.7-0.1,2.5c0,0.3,0,0.6,0,0.9c0,0.2,0,0.3,0,0.5c0,9.9-8,17.9-17.9,17.9C114.8,131.3,106.7,123.3,106.7,113.4
			 M175.5,72.6c0.8-0.6,1.7-1.2,2.6-1.8c0.3-0.2,0.5-0.3,0.8-0.5c0.9-0.6,1.9-1.1,2.8-1.7c0.2-0.1,0.5-0.3,0.8-0.4
			c0.9-0.5,1.8-0.9,2.7-1.3c0.2-0.1,0.4-0.2,0.6-0.3c1-0.4,2.1-0.8,3.1-1.2c0.3-0.1,0.6-0.2,0.9-0.3c1.1-0.4,2.2-0.7,3.3-1
			c0.2-0.1,0.4-0.1,0.6-0.1c1-0.2,2-0.4,3-0.6c0.3,0,0.5-0.1,0.8-0.1c1.1-0.2,2.3-0.3,3.4-0.4c0.3,0,0.6,0,0.9-0.1
			c1.1-0.1,2.3-0.1,3.5-0.1c0.1,0,0.1,0,0.2,0c0,0,0,0,0,0c16.7,0,32.1,8.1,41.7,21.8c0.1,0.5,0.3,1.1,0.4,1.6c0,0,0,0,0,0.1
			c0,0.1,0,0.2,0.1,0.2c1.6,6,4.1,11.6,7.4,16.9c0.1,0.1,0.1,0.2,0.2,0.3c4,6.3,9.1,11.9,15.1,16.4c3.3,2.5,6.9,4.7,10.7,6.6
			c1.2,0.6,2.5,1.1,3.7,1.6c0.4,0.2,0.8,0.3,1.2,0.5c0.9,0.3,1.8,0.7,2.7,1c0.4,0.1,0.9,0.3,1.3,0.4c0.9,0.3,1.8,0.5,2.7,0.8
			c0.4,0.1,0.8,0.2,1.2,0.3c1.3,0.3,2.6,0.6,3.9,0.8c0,0,0,0,0,0c-6.6,7.9-10.1,18.1-9.5,29c1.1,20.9,18.4,38.1,39.3,39.2
			c3.7,0.2,7.4-0.1,11-0.9c0,0,0,0,0,0c-1,0.7-2,1.4-3,2.1c-0.2,0.1-0.3,0.2-0.5,0.3c-1,0.6-2.1,1.3-3.1,1.8c-0.1,0-0.2,0.1-0.2,0.1
			c-1.1,0.6-2.1,1.1-3.2,1.5c-0.1,0-0.2,0.1-0.3,0.1c-1.1,0.5-2.3,0.9-3.4,1.3c-0.2,0.1-0.4,0.1-0.5,0.2c-1.2,0.4-2.4,0.8-3.6,1.1
			c0,0,0,0-0.1,0c-1.2,0.3-2.4,0.5-3.7,0.8c-0.2,0-0.3,0.1-0.5,0.1c-1.2,0.2-2.5,0.4-3.7,0.5c-0.2,0-0.4,0-0.6,0
			c-1.3,0.1-2.6,0.2-3.9,0.2c-16.7,0-32.2-8.1-41.7-21.8c-0.1-0.6-0.3-1.1-0.4-1.7c0-0.1,0-0.2-0.1-0.2c-0.5-1.8-1.1-3.7-1.8-5.5
			c-1.5-4-3.3-7.8-5.6-11.4c-0.1-0.1-0.1-0.2-0.2-0.3c-4-6.3-9.1-11.9-15.1-16.4c-3.3-2.5-6.9-4.7-10.7-6.6
			c-1.2-0.6-2.5-1.1-3.7-1.7c-0.4-0.2-0.8-0.3-1.2-0.5c-0.9-0.3-1.8-0.7-2.7-1c-0.4-0.1-0.9-0.3-1.3-0.4c-0.9-0.3-1.8-0.5-2.8-0.8
			c-0.4-0.1-0.8-0.2-1.2-0.3c-1.3-0.3-2.6-0.6-4-0.8c0,0,0,0,0,0c6.6-7.9,10.1-18.1,9.5-29c-1.1-20.9-18.4-38.1-39.4-39.2
			c-3.8-0.2-7.5,0.1-11.1,0.9C175.3,72.7,175.4,72.7,175.5,72.6 M286.4,115.5c-3-1.5-5.9-3.3-8.6-5.3c-4.8-3.6-8.8-8-12-13
			c-0.1-0.1-0.1-0.2-0.2-0.3c-2.7-4.2-4.7-8.8-6-13.6c0-0.1,0-0.1-0.1-0.2c-0.2-0.8-0.4-1.6-0.6-2.4c0,0,0-0.1,0-0.1
			c-1-4.3-1.3-8.8-1.1-13.3c1.3-26,22.7-47.1,48.7-48.1c1,0,2.1-0.1,3.3,0h0c0.4,0,0.8,0,1.2,0c0.1,0,0.2,0,0.3,0c0.3,0,0.7,0,1,0.1
			c0.1,0,0.2,0,0.3,0c0.2,0,0.3,0,0.5,0c0.1,0,0.1,0,0.2,0l0.6,0.1c0.1,0,0.2,0,0.3,0c0.3,0,0.6,0.1,1,0.1c0.1,0,0.2,0,0.3,0
			c0.4,0,0.8,0.1,1.1,0.2c0.1,0,0.1,0,0.2,0c1,0.2,2.1,0.4,3.1,0.6c0,0,0.1,0,0.1,0c0.2,0,0.3,0.1,0.4,0.1c0.7,0.2,1.4,0.3,2,0.5
			c0.1,0,0.2,0,0.3,0.1l0.9,0.3c0.5,0.1,0.9,0.3,1.4,0.5c3.3,1.1,6.4,2.5,9.4,4.3l0.2,0.1c0.3,0.2,0.5,0.3,0.7,0.5
			c0.6,0.4,1.1,0.7,1.7,1.1c0,0,0,0,0,0c0.1,0.1,0.2,0.1,0.3,0.2c0.6,0.4,1.1,0.8,1.7,1.2c0,0,0,0,0.1,0c-3.6-0.8-7.3-1.1-11.1-0.9
			c-20.9,1-38.2,18.2-39.3,39.2c-0.6,11.6,3.4,22.5,11.3,30.9c6.5,6.9,14.9,11.2,24,12.5v7.2c-3,1-6,1.6-9.1,2
			c-2,0.3-4.1,0.4-6.2,0.4C300.7,120.6,293.3,118.9,286.4,115.5 M370.3,58.5l-0.1-0.4c0,0,0-0.1,0-0.1c0-0.1,0-0.2-0.1-0.3
			c0,0,0,0,0-0.1c-0.1-0.4-0.2-0.8-0.3-1.3l0,0c0-0.1,0-0.1,0-0.2c0,0,0,0,0-0.1c0,0,0-0.1,0-0.1c-0.1-0.5-0.2-0.9-0.3-1.4
			c-0.1-0.2-0.1-0.4-0.2-0.6c0-0.1-0.1-0.2-0.1-0.4c0,0,0,0,0-0.1c0-0.2-0.1-0.3-0.1-0.5c-0.1-0.3-0.2-0.6-0.3-1
			c0-0.1-0.1-0.2-0.1-0.3c-0.2-0.7-0.5-1.5-0.7-2.2c-0.1-0.4-0.3-0.9-0.5-1.4c-0.4-1-0.7-2-1.2-3l-0.3-0.6c-0.1-0.3-0.2-0.5-0.3-0.8
			c-0.4-0.9-0.8-1.8-1.3-2.7c0-0.1-0.1-0.1-0.1-0.2c-0.4-0.8-0.9-1.7-1.3-2.5c0-0.1-0.1-0.1-0.1-0.2c-0.4-0.8-0.9-1.6-1.5-2.5
			c0,0-0.1-0.1-0.1-0.1c-0.4-0.6-0.8-1.1-1.1-1.7c-0.4-0.6-0.9-1.2-1.4-1.9c0,0-0.1-0.1-0.1-0.1c-0.4-0.5-0.8-1.1-1.3-1.6l-0.4-0.5
			c-0.4-0.4-0.7-0.9-1.1-1.3c-0.2-0.3-0.6-0.7-1-1.1c0-0.1-0.1-0.1-0.2-0.2c-0.2-0.3-0.5-0.6-0.8-0.9c0,0-0.1-0.1-0.1-0.1
			c-0.2-0.3-0.6-0.6-1-1c-0.7-0.7-1.3-1.3-2-1.9c-0.1-0.1-0.2-0.2-0.2-0.2c-0.7-0.6-1.3-1.2-2-1.7c-0.1-0.1-0.3-0.2-0.4-0.3
			c-0.6-0.5-1.4-1.1-2.1-1.7c-0.1-0.1-0.2-0.2-0.3-0.2c0,0-0.1-0.1-0.1-0.1h10.8c28,0,50.7,22.7,50.7,50.7c0,9.9-8,17.9-17.9,17.9
			c-9.8,0-17.7-7.8-17.9-17.5c0-0.1,0-0.3,0-0.4v-0.4c0-0.3,0-0.7,0-1c0-0.2,0-0.4,0-0.6c0-1.4-0.1-2.8-0.3-4.1c0-0.1,0-0.3,0-0.4h0
			c0-0.1,0-0.1,0-0.2h0l0-0.2c-0.1-0.9-0.2-1.8-0.4-2.7c0-0.3-0.1-0.6-0.2-1c0-0.1,0-0.3-0.1-0.4h0
			C370.4,58.7,370.4,58.6,370.3,58.5 M308.4,6.9C308.4,6.9,308.4,7,308.4,6.9c-0.1,0-0.1,0-0.2,0c-0.8,0-1.5,0-2.3,0
			c-31.7,1.2-57.8,26.5-60.3,57.9c-11.2-9.3-25.3-14.5-40.2-14.5c0,0-0.1,0-0.1,0h-48c-34.7,0-62.9,28.2-62.9,62.9
			c0,16.6,13.5,30.2,30.2,30.2c16.5,0,29.9-13.2,30.2-29.6c0-0.2,0-0.4,0-0.5c0,0,0,0,0-0.1c0-8.1,3.3-15.6,9.1-21.2
			c5.9-5.6,13.6-8.4,21.7-8c14.8,0.7,26.9,12.9,27.8,27.6c0.7,12-5.8,22.9-16.6,28.1c-4.3,0.6-8.7,1.7-13,3.2
			c-0.6,0.2-1.3,0.5-2,0.8c-2.3,0.9-3.8,3.2-3.8,5.7v17.2c0,3.4,2.7,6.1,6.1,6.1c8.1,0,15.7,3.3,21.3,9.2c5.6,5.9,8.4,13.7,8,21.8
			c-0.8,14.8-13,26.9-27.7,27.6c-16.1,0.8-29.6-11.1-30.8-27c0-0.1,0-0.2-0.1-0.4c0-0.6,0-1.3,0-1.9c0-16.6-13.5-30.2-30.2-30.2
			c-16.6,0-30.2,13.5-30.2,30.2c0,34.7,28.2,62.9,62.9,62.9h48.1c0.1,0,0.1,0,0.2,0c0.8,0,1.6,0,2.3,0c31.7-1.2,57.8-26.5,60.3-57.9
			c11.1,9.2,25.3,14.5,40.1,14.5c0,0,0,0,0,0h48.1c34.7,0,62.9-28.2,62.9-62.9c0-16.6-13.5-30.2-30.2-30.2
			c-16.6,0-30.2,13.5-30.2,30.2c0,0.1,0,0.2,0,0.2c0,0,0,0.1,0,0.1c0,0,0,0,0,0c-0.1,8-3.4,15.5-9.3,21c-5.9,5.5-13.5,8.3-21.6,7.9
			c-14.7-0.8-26.9-12.9-27.7-27.6c-0.7-12,5.8-22.9,16.6-28.1c4.3-0.6,8.7-1.7,13-3.2c0.6-0.2,1.3-0.5,2-0.8
			c2.3-0.9,3.8-3.2,3.8-5.7v-17.2c0-3.4-2.7-6.1-6.1-6.1c-8.1,0-15.7-3.3-21.3-9.2c-5.6-5.9-8.4-13.7-8-21.8
			c0.8-14.8,13-26.9,27.7-27.6c16.1-0.8,29.6,11.1,30.8,27c0,0,0,0.1,0,0.1c0,0.2,0,0.4,0,0.6c0,0.3,0,0.5,0,0.8c0,0.1,0,0.2,0,0.3
			c0,0.2,0,0.3,0,0.5c0,16.6,13.5,30.2,30.2,30.2c16.6,0,30.2-13.5,30.2-30.2c0-34.7-28.2-62.9-62.9-62.9H308.4z"/>
	</defs>
	<clipPath id="SVGID_4_">
		<use xlink:href="#SVGID_3_"  style="overflow:visible;"/>
	</clipPath>
	<path class="st1" d="M258,78.6c0.4,0.7,0.7,1.4,0.9,2.2c0.2,0.8,0.4,1.6,0.6,2.4c0,0.1,0,0.1,0.1,0.2c1.3,4.8,3.3,9.4,6,13.6
		c0.1,0.1,0.1,0.2,0.2,0.3c3.2,5,7.3,9.4,12,13c2.7,2,5.6,3.8,8.6,5.3c6.9,3.4,14.3,5.1,22.1,5.1c2.1,0,4.2-0.1,6.1-0.4
		c3-0.4,5.9,1.5,6.7,4.4c0.8,2.9-0.6,6-3.4,7.3c-11.2,5-17.9,16.2-17.3,28.4c0.8,14.7,13,26.9,27.7,27.6c8.1,0.4,15.7-2.4,21.6-7.9
		c5.9-5.5,9.1-13,9.3-21c0-3.4,2.8-6,6.1-6h0c2.8,0,5.1,1.9,5.8,4.4c0.2,0.6,0.3,1.2,0.3,1.8c-0.3,34.4-28.6,62.4-63,62.4
		c-21.1,0-40.7-10.5-52.5-28.2c-0.4-0.6-0.7-1.4-0.9-2.1c-0.2-0.8-0.4-1.6-0.6-2.4c0-0.1,0-0.1-0.1-0.2c-1.3-4.8-3.3-9.4-6-13.6
		c-0.1-0.1-0.1-0.2-0.2-0.3c-3.2-5-7.2-9.4-12-13c-2.7-2-5.6-3.8-8.6-5.3c-6.9-3.3-14.3-5-22.1-5c-2.1,0-4.1,0.1-6,0.4
		c-3,0.4-5.9-1.5-6.7-4.4c-0.8-2.9,0.6-6,3.4-7.3c11.1-5,17.9-16.2,17.2-28.4c-0.8-14.8-13-26.9-27.8-27.6c-8.1-0.4-15.8,2.4-21.7,8
		c-5.9,5.6-9.1,13.1-9.1,21.2v0c0,3.4-2.7,6.1-6.1,6.1c-3.4,0-6.1-2.7-6.1-6.1v0c0-34.7,28.2-62.9,62.9-62.9
		C226.7,50.4,246.3,61,258,78.6 M186.3,71.9c20.9,1,38.2,18.3,39.4,39.2c0.6,10.8-2.9,21.1-9.5,29c5.8,1,11.5,2.8,16.8,5.4
		c3.8,1.8,7.4,4,10.7,6.6c6,4.6,11.1,10.1,15.1,16.4c0.1,0.1,0.1,0.2,0.2,0.3c3.3,5.3,5.8,10.9,7.4,16.9c0,0.1,0,0.2,0.1,0.2
		c0.1,0.5,0.3,1.1,0.4,1.7c9.5,13.7,25,21.8,41.7,21.8c11.3,0,21.8-3.8,30.2-10.1c-3.6,0.8-7.3,1.1-11,0.9
		c-20.9-1.1-38.2-18.3-39.3-39.2c-0.6-10.8,2.9-21.1,9.5-29c-5.8-1-11.5-2.8-16.9-5.4c-3.8-1.8-7.4-4-10.7-6.6
		c-6-4.6-11.1-10.1-15.1-16.4c-0.1-0.1-0.1-0.2-0.2-0.3c-3.3-5.3-5.8-11-7.4-16.9c0-0.1,0-0.2-0.1-0.2c-0.1-0.5-0.3-1.1-0.4-1.7
		c-9.5-13.7-25-21.8-41.7-21.8c-11.4,0-21.9,3.8-30.3,10.1C178.8,72,182.5,71.7,186.3,71.9"/>
	<rect x="233" y="187.9" class="st1" width="65.2" height="56.7"/>
	<rect x="281.4" y="107.6" class="st1" width="101.4" height="137"/>
	<g class="st2">
		<g>
			<defs>
				<rect id="SVGID_5_" x="228.1" y="-5.5" width="155.7" height="155.7"/>
			</defs>
			<clipPath id="SVGID_6_">
				<use xlink:href="#SVGID_5_"  style="overflow:visible;"/>
			</clipPath>
			<g class="st3">
				<defs>
					<rect id="SVGID_7_" x="228.1" y="-5.5" width="155.7" height="155.7"/>
				</defs>
				<clipPath id="SVGID_8_">
					<use xlink:href="#SVGID_7_"  style="overflow:visible;"/>
				</clipPath>
				<g transform="matrix(1 0 0 1 1.525879e-05 0)" style="clip-path:url(#SVGID_8_);">
					
						<image style="overflow:visible;" width="217" height="217" xlink:href="60E256E854734038.png"  transform="matrix(0.7175 0 0 -0.7175 228.1392 150.1885)">
					</image>
				</g>
			</g>
		</g>
	</g>
	<path class="st1" d="M309.9,7c0.6,0,1.2,0,1.8,0.1c0.6,0,1.2,0.1,1.8,0.1l1.3,0.1c0.6,0,1.1,0.1,1.7,0.2c0.6,0.1,1.2,0.1,1.8,0.2
		c1.4,0.2,2.8,0.5,4.1,0.8c1.2,0.3,2.4,0.6,3.5,0.9l1,0.3c0.6,0.2,1.2,0.4,1.8,0.6c4.1,1.4,8,3.2,11.7,5.4l0.3,0.2
		c0.4,0.2,0.7,0.4,0.9,0.6c0.6,0.4,1.3,0.8,1.9,1.2l0.2,0.1c0.1,0.1,0.2,0.1,0.3,0.2c0,0,0,0,0.1,0c0.7,0.4,1.3,0.9,1.9,1.4
		c0.1,0.1,0.2,0.2,0.3,0.2c0.7,0.6,1.5,1.1,2.1,1.7c0.1,0.1,0.3,0.2,0.4,0.3c0.7,0.6,1.3,1.1,2,1.7c0.1,0.1,0.2,0.2,0.2,0.2
		c0.7,0.6,1.4,1.3,2,1.9c0.4,0.4,0.7,0.7,1,1c0.4,0.4,0.7,0.8,1.1,1.2c0.4,0.4,0.7,0.8,1,1.1c0.4,0.4,0.8,0.9,1.1,1.3l0.4,0.5
		c0.4,0.5,0.8,1.1,1.3,1.6c0,0,0.1,0.1,0.1,0.1c0.5,0.7,1,1.4,1.4,1.9c0.4,0.5,0.8,1.1,1.1,1.7c0,0,0.1,0.1,0.1,0.1
		c0.6,0.9,1.1,1.7,1.5,2.5c0,0.1,0.1,0.1,0.1,0.2c0.5,0.8,0.9,1.6,1.3,2.5c0,0.1,0.1,0.1,0.1,0.2c0.5,0.9,0.9,1.9,1.3,2.7
		c0.1,0.3,0.2,0.5,0.3,0.8l0.3,0.6c0.4,1,0.8,1.9,1.2,3c0.2,0.5,0.4,1,0.5,1.4c0.2,0.7,0.5,1.4,0.7,2.2c0,0.1,0.1,0.2,0.1,0.3
		c0.1,0.3,0.2,0.6,0.3,1c0.1,0.2,0.1,0.3,0.1,0.5c0,0,0,0,0,0.1c0,0.2,0.1,0.3,0.1,0.4c0.2,0.7,0.4,1.4,0.5,2.1c0,0.1,0,0.1,0,0.2
		l0.2,0.9c0,0.1,0,0.1,0,0.2h0c0,0.2,0.1,0.3,0.1,0.4c0,0.1,0,0.2,0.1,0.2l0.1,0.4c0,0.1,0,0.2,0.1,0.3h0c0.1,0.5,0.2,1,0.2,1.5
		c0,0.1,0,0.1,0,0.2l0.1,0.9c0,0.3,0.1,0.5,0.1,0.8c0,0,0,0,0,0l0.1,0.9h0c0,0.2,0.1,0.4,0.1,0.7c0,0.5,0.1,0.9,0.1,1.4
		c0,0.1,0,0.1,0,0.2c0,0.5,0.1,1,0.1,1.6c0.1,3.3-2.4,6.2-5.8,6.3c-3.3,0.2-6.2-2.3-6.4-5.6c-1.2-15.9-14.6-27.8-30.8-27
		c-14.7,0.7-26.9,12.9-27.7,27.6c-0.4,8.2,2.4,15.9,8,21.8c5.6,5.9,13.2,9.2,21.3,9.2c3.4,0,6.1,2.7,6.1,6.1v17.2
		c0,2.5-1.5,4.7-3.8,5.7c-0.7,0.3-1.4,0.6-2,0.8c-4.6,1.7-9.3,2.9-14,3.4c-2.5,0.3-5.1,0.5-7.7,0.5c-9.6,0-18.8-2.1-27.4-6.3
		c-3.8-1.8-7.4-4-10.7-6.6c-6-4.6-11.1-10.1-15.1-16.4c-0.1-0.1-0.1-0.2-0.2-0.3c-3.3-5.3-5.8-11-7.4-16.9c0-0.1,0-0.2-0.1-0.2
		c-0.2-0.9-0.5-1.9-0.7-2.8c0-0.1,0-0.2-0.1-0.3c-1.2-5.4-1.6-10.9-1.3-16.4C247.2,34.5,273.7,8.2,306,7c0.8,0,1.5,0,2.3,0
		C308.8,7,309.4,7,309.9,7 M259.5,83.2c0,0.1,0,0.1,0.1,0.2c1.3,4.8,3.3,9.4,6,13.6c0.1,0.1,0.1,0.2,0.2,0.3c3.2,5,7.3,9.4,12,13
		c2.7,2,5.6,3.8,8.6,5.3c6.9,3.4,14.3,5.1,22.1,5.1c2.1,0,4.2-0.1,6.2-0.4c3-0.4,6-1,9.1-2V111c-9.2-1.3-17.5-5.7-24-12.5
		c-7.9-8.4-11.9-19.3-11.3-30.9c1.1-20.9,18.4-38.1,39.3-39.2c3.8-0.2,7.5,0.1,11.1,0.9c0,0,0,0-0.1-0.1c-0.6-0.4-1.1-0.8-1.7-1.2
		c-0.1-0.1-0.1-0.1-0.2-0.2c0,0,0,0,0,0l0,0c-0.5-0.3-1-0.7-1.6-1.1c-0.2-0.2-0.5-0.3-0.8-0.5l-0.2-0.1c-3-1.7-6.1-3.2-9.4-4.3
		c-0.5-0.2-1-0.3-1.4-0.5l-0.9-0.3c-0.9-0.3-1.7-0.5-2.6-0.7c-1.1-0.3-2.3-0.5-3.5-0.7c-0.4-0.1-0.8-0.1-1.1-0.2c-0.1,0-0.2,0-0.3,0
		c-0.3,0-0.6-0.1-1-0.1c-0.1,0-0.1,0-0.2,0l-0.6-0.1c-0.3,0-0.6-0.1-0.9-0.1c-0.3,0-0.7,0-1-0.1c-0.1,0-0.2,0-0.2,0
		c-0.3,0-0.7,0-1.2,0c-1.2,0-2.2,0-3.3,0c-26,1-47.4,22.1-48.7,48.1c-0.2,4.5,0.1,9,1.1,13.3c0,0.1,0,0.1,0,0.2
		C259.1,81.6,259.3,82.4,259.5,83.2"/>
	<g class="st2">
		<g>
			<defs>
				<rect id="SVGID_9_" x="130.3" y="121.7" width="155.7" height="155.7"/>
			</defs>
			<clipPath id="SVGID_10_">
				<use xlink:href="#SVGID_9_"  style="overflow:visible;"/>
			</clipPath>
			<g class="st4">
				<defs>
					<rect id="SVGID_11_" x="130.3" y="121.7" width="155.7" height="155.7"/>
				</defs>
				<clipPath id="SVGID_12_">
					<use xlink:href="#SVGID_11_"  style="overflow:visible;"/>
				</clipPath>
				<g style="clip-path:url(#SVGID_12_);">
					
						<image style="overflow:visible;" width="217" height="217" xlink:href="60E256E854734039.png"  transform="matrix(0.7175 0 0 -0.7175 130.3009 277.4323)">
					</image>
				</g>
			</g>
		</g>
	</g>
	<path class="st1" d="M232.9,145.4c3.8,1.8,7.4,4,10.7,6.6c6,4.6,11.1,10.1,15.1,16.4c0.1,0.1,0.1,0.2,0.2,0.3
		c3.3,5.3,5.8,10.9,7.4,16.9c0,0.1,0,0.2,0.1,0.2c0.2,0.9,0.5,1.9,0.7,2.8c1.2,5.4,1.7,11,1.4,16.6c-1.6,32.3-28.1,58.5-60.4,59.7
		c-1.3,0.1-2.6,0.1-4,0c-0.6,0-1.1,0-1.7-0.1c-0.6,0-1.2-0.1-1.8-0.1l-0.6-0.1c-0.2,0-0.5,0-0.7-0.1c-0.6,0-1.1-0.1-1.6-0.2
		c-0.6-0.1-1.2-0.1-1.8-0.2c-1.4-0.2-2.8-0.5-4.1-0.8c-1.2-0.3-2.4-0.6-3.5-0.9l-0.9-0.3c0,0-0.2-0.1-0.2-0.1
		c-0.6-0.2-1.1-0.4-1.7-0.5c-4-1.4-8-3.1-11.8-5.4l-0.4-0.2c-0.3-0.2-0.6-0.4-0.8-0.5c-0.7-0.4-1.4-0.9-2-1.3
		c-0.1,0-0.2-0.1-0.3-0.2c0,0,0,0-0.1,0c-0.6-0.4-1.3-0.9-1.9-1.4c-0.1-0.1-0.2-0.1-0.3-0.2c-0.7-0.6-1.5-1.1-2.1-1.7
		c-0.1-0.1-0.3-0.2-0.4-0.3c-0.7-0.5-1.3-1.1-2-1.7c-0.1-0.1-0.2-0.2-0.3-0.3c-0.7-0.6-1.3-1.3-2-1.9c-0.4-0.4-0.7-0.7-1-1
		c-0.4-0.4-0.8-0.8-1-1.1c-0.4-0.4-0.8-0.8-1-1.1c-0.4-0.4-0.8-0.9-1.2-1.4l-0.4-0.4c-0.4-0.5-0.9-1.1-1.3-1.6c0,0-0.1-0.1-0.1-0.1
		c-0.5-0.7-1-1.4-1.4-1.9c-0.4-0.5-0.8-1.1-1.1-1.7c0,0-0.1-0.1-0.1-0.1c-0.6-0.9-1.1-1.7-1.5-2.5c0,0-0.1-0.1-0.1-0.1
		c-0.5-0.8-0.9-1.6-1.3-2.5c0-0.1-0.1-0.1-0.1-0.2c-0.5-0.9-0.9-1.9-1.3-2.7c-0.1-0.3-0.2-0.5-0.3-0.8l-0.3-0.6c-0.4-1-0.8-2-1.2-3
		c-0.2-0.5-0.4-1-0.5-1.4c-0.2-0.7-0.5-1.4-0.7-2.3c-0.1-0.4-0.2-0.7-0.3-1.1c-0.1-0.2-0.1-0.3-0.1-0.5c0,0,0,0,0,0
		c-0.1-0.2-0.1-0.4-0.1-0.4c-0.2-0.7-0.4-1.4-0.5-2.1c0-0.1,0-0.1,0-0.2l-0.2-0.9c0,0,0-0.1,0-0.1h0c-0.1-0.2-0.1-0.4-0.1-0.5
		c0-0.1,0-0.1,0-0.2l-0.1-0.4c0-0.1,0-0.2-0.1-0.3c-0.1-0.5-0.2-1-0.2-1.5c0-0.1,0-0.1,0-0.2l-0.1-0.9c0-0.3-0.1-0.5-0.1-0.8
		l-0.1-0.9h0c0-0.2-0.1-0.4-0.1-0.7c0-0.4-0.1-0.8-0.1-1.2l0-0.2c0-0.1,0-0.2,0-0.3l0-0.1c0-0.5-0.1-1-0.1-1.5
		c-0.1-3.3,2.5-6.1,5.8-6.3c3.3-0.1,6.2,2.3,6.4,5.6c1.2,15.9,14.7,27.8,30.8,27c14.7-0.7,26.9-12.9,27.7-27.6
		c0.4-8.2-2.4-15.9-8-21.8c-5.6-5.9-13.1-9.2-21.3-9.2c-3.4,0-6.1-2.7-6.1-6.1v-17.2c0-2.5,1.5-4.7,3.8-5.7c0.7-0.3,1.4-0.6,2-0.8
		c4.6-1.7,9.4-2.9,14-3.4c2.4-0.3,5-0.5,7.7-0.5C215.2,139.2,224.4,141.3,232.9,145.4 M190.3,161c9.2,1.3,17.5,5.7,24,12.5
		c7.9,8.4,11.9,19.4,11.3,30.9c-1.1,20.9-18.4,38.1-39.3,39.2c-3.8,0.2-7.5-0.1-11.1-0.9c0,0,0,0,0.1,0.1c0.6,0.4,1.1,0.8,1.7,1.2
		c0.1,0.1,0.2,0.1,0.3,0.2c0,0,0,0,0,0c0.5,0.3,1.1,0.7,1.7,1.1l1,0.6c3,1.7,6.1,3.2,9.4,4.3c0.5,0.2,0.9,0.3,1.4,0.5l0.9,0.3
		c0.9,0.3,1.7,0.5,2.6,0.7c1.1,0.3,2.3,0.5,3.5,0.7c0.4,0.1,0.8,0.1,1.1,0.2c0.1,0,0.2,0,0.3,0c0.3,0,0.6,0.1,1,0.1
		c0.1,0,0.2,0,0.3,0l0.6,0.1c0.3,0,0.6,0.1,0.8,0.1c0.3,0,0.7,0,1,0.1c0.1,0,0.2,0,0.3,0c0.4,0,0.8,0,1.2,0c1.2,0,2.2,0,3.3,0
		c26-1,47.4-22.1,48.7-48.1c0.2-4.5-0.1-9-1.1-13.3c0,0,0-0.1,0-0.1c-0.2-0.8-0.4-1.6-0.6-2.4c0-0.1,0-0.1-0.1-0.2
		c-1.3-4.8-3.3-9.4-6-13.6c-0.1-0.1-0.1-0.2-0.2-0.3c-3.2-5-7.2-9.4-12-13c-2.7-2-5.6-3.8-8.6-5.3c-6.9-3.3-14.3-5-22.1-5
		c-2.1,0-4.1,0.1-6.2,0.4c-3,0.4-6.1,1-9.1,2V161z M260.4,187.2L260.4,187.2L260.4,187.2z"/>
	<g class="st2">
		<g>
			<defs>
				<rect id="SVGID_13_" x="84.6" y="157" width="146.9" height="123"/>
			</defs>
			<clipPath id="SVGID_14_">
				<use xlink:href="#SVGID_13_"  style="overflow:visible;"/>
			</clipPath>
			<g class="st5">
				<defs>
					<rect id="SVGID_15_" x="84.6" y="157" width="146.9" height="123"/>
				</defs>
				<clipPath id="SVGID_16_">
					<use xlink:href="#SVGID_15_"  style="overflow:visible;"/>
				</clipPath>
				<g transform="matrix(1 0 0 1 0 0)" style="clip-path:url(#SVGID_16_);">
					
						<image style="overflow:visible;" width="205" height="171" xlink:href="60E256E85473403F.png"  transform="matrix(0.7165 0 0 -0.7191 84.5704 279.9247)">
					</image>
				</g>
			</g>
		</g>
	</g>
	<path class="st1" d="M154.8,202.1c0,1,0,1.9,0.1,2.8l0.1,1.4c0,0.5,0.1,1,0.2,1.5c0,0.1,0,0.2,0,0.3c0,0.3,0.1,0.7,0.1,1
		c0,0.1,0,0.1,0,0.2c0,0.2,0.1,0.4,0.1,0.6l0.1,0.5c0.1,0.5,0.2,0.9,0.3,1.5c0.1,0.4,0.1,0.7,0.2,1.1c0,0.1,0,0.1,0,0.2
		c0.1,0.4,0.2,0.8,0.3,1.1c0,0,0,0.2,0,0.2c0.2,0.9,0.4,1.7,0.8,2.7c0.2,0.7,0.5,1.5,0.7,2.2c0,0.1,0.1,0.2,0.1,0.3
		c0.1,0.2,0.1,0.4,0.2,0.6l0.3,0.8c0.1,0.2,0.2,0.5,0.3,0.8c0.1,0.3,0.2,0.6,0.4,0.8c0,0.1,0.1,0.2,0.1,0.3c0.1,0.2,0.2,0.5,0.3,0.7
		c0.2,0.5,0.5,1,0.7,1.5c0.1,0.2,0.2,0.4,0.3,0.6l0.3,0.5c0.3,0.5,0.6,1.1,0.9,1.6c0,0.1,0.1,0.2,0.2,0.3l0.1,0.2
		c0.3,0.5,0.7,1.1,1,1.6c0.1,0.1,0.2,0.2,0.2,0.4c0.1,0.1,0.1,0.1,0.1,0.2c0.3,0.5,0.7,1,1.1,1.6c0.6,0.9,1.2,1.6,1.8,2.4
		c0,0,0.1,0.1,0.1,0.1c0.4,0.5,0.8,1,1.2,1.4c0.1,0.1,0.2,0.2,0.2,0.3c0.2,0.2,0.4,0.4,0.5,0.6c0.1,0.1,0.1,0.1,0.2,0.2
		c0.4,0.4,0.8,0.9,1.3,1.3l0.2,0.2c0.1,0.1,0.1,0.1,0.2,0.2c0.5,0.5,1,0.9,1.4,1.3c0.1,0.1,0.2,0.1,0.2,0.2c9.2,8,21,12.4,33.3,12.4
		c3.4,0,6.1,2.7,6.1,6.1c0,3.4-2.7,6.1-6.1,6.1h-48.1c-34.7,0-62.9-28.2-62.9-62.9c0-16.6,13.5-30.2,30.2-30.2
		C141.3,171.9,154.8,185.5,154.8,202.1 M168.2,252.8c-1.4-1.1-2.8-2.2-4.2-3.4c-0.1-0.1-0.2-0.1-0.2-0.2c-0.6-0.5-1.1-1-1.7-1.5
		c-0.2-0.2-0.4-0.4-0.5-0.5c-0.5-0.5-1-1-1.5-1.5c-0.1-0.1-0.3-0.3-0.3-0.4c-0.2-0.2-0.5-0.5-0.7-0.8c-0.1-0.1-0.1-0.1-0.2-0.2
		c-0.6-0.6-1.2-1.3-1.7-2c-0.8-1-1.6-2-2.3-3c-0.5-0.6-1-1.3-1.4-2c-0.1-0.2-0.3-0.4-0.4-0.6c-0.4-0.6-0.8-1.3-1.3-2
		c-0.1-0.2-0.2-0.4-0.4-0.6c-0.4-0.7-0.8-1.4-1.2-2.2l-0.2-0.4c-0.2-0.3-0.3-0.6-0.5-0.9c-0.3-0.6-0.6-1.1-0.9-1.7
		c-0.1-0.3-0.3-0.6-0.4-0.9c-0.2-0.5-0.4-1-0.6-1.4c-0.1-0.3-0.3-0.7-0.4-1l-0.4-0.9c-0.1-0.3-0.3-0.7-0.4-1c-0.4-1-0.7-2-1-2.8
		c-0.4-1.1-0.7-2.3-1-3.6c-0.1-0.5-0.2-0.9-0.3-1.4c-0.1-0.6-0.3-1.2-0.4-1.7c-0.1-0.6-0.2-1.2-0.3-1.9l-0.1-0.4
		c-0.1-0.4-0.1-0.7-0.2-1.1c-0.1-0.6-0.1-1.1-0.2-1.6c-0.1-0.6-0.1-1.1-0.2-1.7c0-0.1,0-0.1,0-0.2l-0.1-1.6
		c-0.1-1.2-0.1-2.3-0.1-3.5c0-9.9-8-17.9-17.9-17.9c-9.9,0-17.9,8-17.9,17.9c0,28,22.7,50.7,50.7,50.7H168.2z M163.5,230.5
		C163.5,230.5,163.5,230.5,163.5,230.5C163.5,230.5,163.5,230.5,163.5,230.5"/>
	<g class="st2">
		<g>
			<defs>
				<rect id="SVGID_17_" x="84.6" y="35.5" width="147.3" height="123"/>
			</defs>
			<clipPath id="SVGID_18_">
				<use xlink:href="#SVGID_17_"  style="overflow:visible;"/>
			</clipPath>
			<g class="st6">
				<defs>
					<rect id="SVGID_19_" x="84.6" y="35.5" width="147.3" height="123"/>
				</defs>
				<clipPath id="SVGID_20_">
					<use xlink:href="#SVGID_19_"  style="overflow:visible;"/>
				</clipPath>
				<g style="clip-path:url(#SVGID_20_);">
					
						<image style="overflow:visible;" width="205" height="171" xlink:href="60E256E85473403A.png"  transform="matrix(0.7185 0 0 -0.7191 84.5704 158.4151)">
					</image>
				</g>
			</g>
		</g>
	</g>
	<path class="st1" d="M211.6,56.6c0,3.4-2.7,6.1-6.1,6.1c-28,0-50.7,22.8-50.7,50.7c0,0.2,0,0.4,0,0.5
		c-0.3,16.4-13.7,29.6-30.2,29.6c-16.6,0-30.2-13.5-30.2-30.2c0-34.7,28.2-62.9,62.9-62.9h48.1C208.9,50.4,211.6,53.2,211.6,56.6
		 M142.6,113.4c0-0.2,0-0.3,0-0.5c0.2-20.6,10.3-38.8,25.7-50.2h-10.9c-28,0-50.7,22.7-50.7,50.7c0,9.9,8,17.9,17.9,17.9
		S142.6,123.3,142.6,113.4"/>
	<g class="st2">
		<g>
			<defs>
				<rect id="SVGID_21_" x="287.5" y="108.5" width="146.9" height="123"/>
			</defs>
			<clipPath id="SVGID_22_">
				<use xlink:href="#SVGID_21_"  style="overflow:visible;"/>
			</clipPath>
			<g class="st7">
				<defs>
					<rect id="SVGID_23_" x="287.5" y="108.5" width="146.9" height="123"/>
				</defs>
				<clipPath id="SVGID_24_">
					<use xlink:href="#SVGID_23_"  style="overflow:visible;"/>
				</clipPath>
				<g transform="matrix(1 0 0 1 0 1.525879e-05)" style="clip-path:url(#SVGID_24_);">
					
						<image style="overflow:visible;" width="205" height="171" xlink:href="60E256E85473403B.png"  transform="matrix(0.7165 0 0 -0.7191 287.4512 231.4805)">
					</image>
				</g>
			</g>
		</g>
	</g>
	<path class="st1" d="M419.5,158.6c0,34.7-28.2,62.9-62.9,62.9h-48.1c-3.4,0-6.1-2.7-6.1-6.1s2.7-6.1,6.1-6.1
		c27.6,0,50.2-22.3,50.7-49.8c0-0.1,0-0.3,0-0.4c0-0.1,0-0.2,0-0.2c0-0.1,0-0.2,0-0.2c0-16.6,13.5-30.2,30.2-30.2
		C405.9,128.5,419.5,142,419.5,158.6 M371.4,158.6v0.4v0.1v0.1c-0.2,20.5-10.3,38.7-25.8,50.1h10.9c28,0,50.7-22.7,50.7-50.7
		c0-9.9-8-17.9-17.9-17.9c-9.8,0-17.7,7.8-17.9,17.5C371.4,158.4,371.4,158.5,371.4,158.6"/>
	<g class="st2">
		<g>
			<defs>
				<rect id="SVGID_25_" x="282.5" y="-8.5" width="147.3" height="123"/>
			</defs>
			<clipPath id="SVGID_26_">
				<use xlink:href="#SVGID_25_"  style="overflow:visible;"/>
			</clipPath>
			<g class="st8">
				<defs>
					<rect id="SVGID_27_" x="282.5" y="-8.5" width="147.3" height="123"/>
				</defs>
				<clipPath id="SVGID_28_">
					<use xlink:href="#SVGID_27_"  style="overflow:visible;"/>
				</clipPath>
				<g transform="matrix(1 0 0 1 0 -7.629395e-06)" style="clip-path:url(#SVGID_28_);">
					
						<image style="overflow:visible;" width="205" height="171" xlink:href="60E256E854734036.png"  transform="matrix(0.7185 0 0 -0.7191 282.4774 114.4319)">
					</image>
				</g>
			</g>
		</g>
	</g>
	<path class="st1" d="M419.5,69.9c0,16.6-13.5,30.2-30.2,30.2c-16.6,0-30.2-13.5-30.2-30.2c0-0.2,0-0.3,0-0.5c0-0.1,0-0.2,0-0.3
		c0-0.3,0-0.5,0-0.8c0-1.3-0.1-2.5-0.2-3.5c0-0.1,0-0.3,0-0.5c-0.1-0.8-0.2-1.5-0.3-2.3c0-0.1,0-0.2,0-0.2c0-0.3-0.1-0.5-0.1-0.8
		c0,0,0,0,0-0.1l-0.1-0.5c0-0.1,0-0.2,0-0.2c-0.1-0.5-0.2-0.9-0.3-1.4c0-0.1,0-0.2-0.1-0.3c-0.1-0.5-0.2-0.9-0.3-1.4
		c0-0.1-0.1-0.2-0.1-0.3c-0.1-0.2-0.1-0.4-0.2-0.6c-0.1-0.3-0.2-0.7-0.2-0.9c-0.2-0.6-0.4-1.2-0.6-1.9c-0.1-0.4-0.3-0.7-0.4-1.1
		c-0.3-0.7-0.6-1.5-0.8-2.1c-0.1-0.3-0.2-0.5-0.3-0.8l-0.3-0.6c-0.3-0.6-0.6-1.2-0.9-1.9c-0.1-0.1-0.1-0.3-0.2-0.4
		c-0.3-0.6-0.6-1.2-1-1.8c-0.1-0.1-0.2-0.2-0.2-0.4v0c-0.3-0.6-0.7-1.2-1-1.8c-0.1-0.1-0.1-0.2-0.2-0.2c-0.3-0.5-0.6-0.9-0.9-1.4
		c0-0.1-0.1-0.1-0.1-0.1c-0.3-0.4-0.6-0.9-0.9-1.3c0-0.1-0.1-0.1-0.1-0.2c-0.4-0.5-0.7-1-1-1.3l-0.3-0.4c-0.3-0.3-0.5-0.7-0.9-1.1
		c-0.2-0.3-0.4-0.5-0.8-0.9c-0.2-0.3-0.5-0.5-0.8-0.9c-0.3-0.3-0.6-0.6-0.9-0.9c-0.5-0.5-1.1-1.1-1.7-1.6c0,0,0,0,0,0
		c-0.1-0.1-0.1-0.1-0.2-0.2c-0.5-0.4-1-0.9-1.5-1.3c-0.1-0.1-0.2-0.1-0.3-0.2c0,0-0.1,0-0.1,0c-0.5-0.4-1-0.8-1.5-1.2
		c-0.1-0.1-0.2-0.1-0.3-0.2c-0.6-0.4-1.1-0.8-1.7-1.2c-0.1-0.1-0.2-0.1-0.3-0.2c0,0,0,0,0,0c-0.5-0.3-1-0.7-1.7-1.1
		c-0.2-0.2-0.5-0.3-0.7-0.5l-0.2-0.1c-3-1.7-6.1-3.2-9.4-4.3c-0.5-0.2-0.9-0.3-1.4-0.5l-0.9-0.3c-0.9-0.3-1.7-0.5-2.7-0.7
		c-1.1-0.3-2.2-0.5-3.4-0.7c-0.4-0.1-0.8-0.1-1.1-0.2c-0.1,0-0.2,0-0.3,0c-0.3,0-0.6-0.1-1-0.1c-0.2,0-0.3,0-0.5-0.1
		c-0.3,0-0.6-0.1-1-0.1c-0.1,0-0.2,0-0.3,0c-0.3,0-0.6,0-1-0.1c-0.1,0-0.2,0-0.3,0c-0.5,0-1,0-1.4-0.1c-0.2,0-0.4,0-0.6,0h-0.5
		c-3.4,0-6.1-2.7-6.1-6.1c0-3.4,2.7-6.1,6.1-6.1h48.1C391.2,6.9,419.5,35.2,419.5,69.9 M345.8,19.3c0.1,0.1,0.2,0.1,0.3,0.2
		c0.7,0.6,1.5,1.1,2.1,1.7c0.1,0.1,0.3,0.2,0.4,0.3c0.7,0.5,1.3,1.1,2,1.7c0.1,0.1,0.2,0.2,0.3,0.3c0.7,0.6,1.4,1.3,2,1.9
		c0.4,0.4,0.7,0.7,1,1c0.4,0.4,0.8,0.8,1,1.1c0.4,0.4,0.8,0.8,1,1.2c0.4,0.4,0.8,0.9,1.2,1.4l0.4,0.4c0.4,0.5,0.9,1.1,1.3,1.6
		c0,0,0.1,0.1,0.1,0.1c0.5,0.7,1,1.3,1.4,2c0.4,0.5,0.7,1,1.1,1.6c0,0.1,0.1,0.1,0.1,0.2c0.6,0.9,1.1,1.7,1.5,2.5
		c0,0.1,0.1,0.1,0.1,0.2c0.5,0.8,0.9,1.6,1.3,2.5c0,0.1,0.1,0.1,0.1,0.2c0.5,0.9,0.9,1.9,1.3,2.7c0.1,0.3,0.2,0.5,0.3,0.8l0.3,0.6
		c0.4,1,0.8,1.9,1.2,3c0.2,0.5,0.4,1,0.5,1.4c0.2,0.7,0.5,1.4,0.7,2.2c0,0.1,0.1,0.2,0.1,0.3c0.1,0.3,0.2,0.6,0.3,0.9
		c0.1,0.2,0.1,0.3,0.1,0.5c0,0,0,0.1,0,0.1c0,0.1,0.1,0.3,0.1,0.4c0.2,0.7,0.3,1.3,0.5,2c0.2,0.7,0.3,1.4,0.4,2.2l0.1,0.3
		c0,0.1,0.1,0.2,0.1,0.3c0.1,0.5,0.2,0.9,0.2,1.4c0.2,1,0.3,2.1,0.4,3.1h0c0,0.1,0,0.3,0,0.4c0.1,1.3,0.2,2.7,0.3,4.1
		c0,0.2,0,0.4,0,0.6c0,0.3,0,0.7,0,1v0.4c0,0.1,0,0.3,0,0.4c0.2,9.7,8.2,17.5,17.9,17.5c9.9,0,17.9-8,17.9-17.9
		c0-28-22.7-50.7-50.7-50.7h-10.8C345.8,19.2,345.8,19.2,345.8,19.3 M340.3,30.5C340.3,30.5,340.3,30.5,340.3,30.5
		C340.3,30.5,340.3,30.5,340.3,30.5 M340.3,30.5C340.3,30.5,340.3,30.5,340.3,30.5C340.3,30.5,340.3,30.5,340.3,30.5 M340.3,30.5
		C340.4,30.5,340.4,30.5,340.3,30.5C340.4,30.5,340.4,30.5,340.3,30.5"/>
	<path class="st1" d="M252.7,243.6h-18.2c-7.7,5.4-17,8.8-27,9.1c-1,0-2.1,0-3.3,0c-0.4,0-0.8,0-1.2,0c-0.1,0-0.2,0-0.2,0
		c-0.3,0-0.6,0-0.8,0c-0.1,0-0.1,0-0.2,0c-0.2,0-0.5-0.1-0.8-0.1l-0.6-0.1c-0.1,0-0.2,0-0.2,0c-0.3,0-0.6-0.1-1-0.1
		c-0.1,0-0.2,0-0.3,0c-0.3,0-0.6-0.1-0.9-0.1c-0.1,0-0.3,0-0.4-0.1c-0.1,0-0.2,0-0.3-0.1V265h8.2c0.1,0,0.1,0,0.2,0
		c0.8,0,1.6,0,2.3,0C225.7,264.3,241.6,256.2,252.7,243.6"/>
	<path class="st1" d="M314.3,19.5V6.9h-5.9c0,0-0.1,0-0.1,0h-0.1c-0.8,0-1.6,0-2.3,0.1c-17.1,0.6-32.6,8.3-43.6,20.2h18.9
		c7.4-4.7,16-7.6,25.2-8c1,0,2.1-0.1,3.3,0c0.4,0,0.8,0,1.2,0.1h0.2c0.3,0,0.7,0,1,0.1c0.1,0,0.2,0,0.3,0c0.2,0,0.3,0,0.5,0
		c0.1,0,0.1,0,0.2,0l0.6,0.1c0.1,0,0.2,0,0.3,0C314,19.5,314.2,19.5,314.3,19.5"/>
	<path class="st1" d="M326.1,221.6v-15.5c-0.4,0.2-0.8,0.3-1.3,0.5c-0.2,0.1-0.4,0.1-0.5,0.2c-1.2,0.4-2.4,0.8-3.6,1
		c0,0-0.1,0-0.1,0c-1.2,0.3-2.4,0.5-3.7,0.8c-0.2,0-0.3,0.1-0.5,0.1c-1.2,0.2-2.4,0.4-3.7,0.5c-0.2,0-0.4,0-0.6,0
		c-1.3,0.1-2.6,0.2-3.9,0.2c-5.6,0-11.2-0.9-16.3-2.7v12.8c5.2,1.4,10.7,2.2,16.3,2.2h0H326.1z"/>
	<path class="st1" d="M227.7,67.8V54.4c-7-2.6-14.4-4-22.1-4h-11.9v13.7h0c1-0.2,2-0.5,3-0.6c0.3-0.1,0.5-0.1,0.8-0.1
		c1.1-0.2,2.3-0.3,3.4-0.4c0.3,0,0.6-0.1,0.9-0.1c1.2-0.1,2.3-0.1,3.5-0.1c0.1,0,0.1,0,0.2,0h0C213.3,62.7,220.9,64.4,227.7,67.8"/>
</g>
<g>
	<defs>
		<rect id="SVGID_29_" x="-144" y="-264" width="800" height="800"/>
	</defs>
	<clipPath id="SVGID_30_">
		<use xlink:href="#SVGID_29_"  style="overflow:visible;"/>
	</clipPath>
	<path class="st9" d="M215.3,135.8c0,16-13,29-29,29c-16.1,0-29.1-13-29.1-29c0-16,13-29.1,29.1-29.1
		C202.3,106.8,215.3,119.8,215.3,135.8 M202.6,135.8c0-9-7.3-16.4-16.3-16.4c-9.1,0-16.4,7.4-16.4,16.4c0,9,7.3,16.3,16.4,16.3
		C195.3,152.1,202.6,144.8,202.6,135.8"/>
	<polygon class="st9" points="252.2,150.1 252.2,163.3 224.1,163.3 224.1,108.2 237.3,108.2 237.3,150.1 	"/>
	<path class="st9" d="M314,135.8c0,16-13,29-29,29c-16.1,0-29.1-13-29.1-29c0-16,13-29.1,29.1-29.1C301.1,106.8,314,119.8,314,135.8
		 M301.3,135.8c0-9-7.3-16.4-16.3-16.4c-9.1,0-16.4,7.4-16.4,16.4c0,9,7.3,16.3,16.4,16.3C294,152.1,301.3,144.8,301.3,135.8"/>
	<path class="st9" d="M129.4,106.7c9.6,0,18.1,4.7,23.4,11.9l-10,6.4c-3.7-3.4-7.9-5.6-13.4-5.6"/>
	<path class="st9" d="M319.8,135.7c0-16,13.1-29.1,29.1-29.1c9.6,0,17.4,4,22.7,11.2l-10.1,6.4c-3.4-3.1-7.1-4.9-12.6-4.9
		c-9,0-16.4,7.4-16.4,16.4"/>
</g>
<rect x="-144" y="-264" class="st10" width="800" height="800"/>
</svg>
